<?xml version="1.0" encoding="iso-8859-1"?>
<!-- Generator: Adobe Illustrator 21.0.0, SVG Export Plug-In . SVG Version: 6.00 Build 0)  -->
<svg version="1.1" xmlns="http://www.w3.org/2000/svg" xmlns:xlink="http://www.w3.org/1999/xlink" x="0px" y="0px" width="1400px"
	 height="1400px" viewBox="0 0 1400 1400" enable-background="new 0 0 1400 1400" xml:space="preserve">
<g id="Background">
	<rect id="color_fill" fill="#FFFFFF" width="1400" height="1400"/>
</g>
<g id="Objects">
	<g id="geometric_shape">
		<polygon fill="#FFFFFF" points="87.5,0 175,87.5 175,87.5 175,0 		"/>
		<polygon fill="#F7F7F7" points="175,0 175,87.5 262.5,0 		"/>
		<polygon fill="#FFFFFF" points="262.5,0 350,87.5 350,87.5 350,0 		"/>
		<polygon fill="#F7F7F7" points="350,0 350,87.5 437.5,0 		"/>
		<polygon fill="#F7F7F7" points="0,0 0,87.5 87.5,0 		"/>
		<polygon fill="#FFFFFF" points="437.5,0 525,87.5 525,87.5 525,0 		"/>
		<polygon fill="#F7F7F7" points="525,0 525,87.5 612.5,0 		"/>
		<polygon fill="#FFFFFF" points="612.5,0 700,87.5 700,87.5 700,0 		"/>
		<polygon fill="#F7F7F7" points="700,0 700,87.5 787.5,0 		"/>
		<polygon fill="#FFFFFF" points="787.5,0 875,87.5 875,87.5 875,0 		"/>
		<polygon fill="#F7F7F7" points="875,0 875,87.5 962.5,0 		"/>
		<polygon fill="#FFFFFF" points="962.5,0 1050,87.5 1050,87.5 1050,0 		"/>
		<polygon fill="#F7F7F7" points="1050,0 1050,87.5 1137.5,0 		"/>
		<polygon fill="#FFFFFF" points="1137.5,0 1225,87.5 1225,87.5 1225,0 		"/>
		<polygon fill="#F7F7F7" points="1225,0 1225,87.5 1312.5,0 		"/>
		<polygon fill="#FFFFFF" points="1312.5,0 1400,87.5 1400,87.5 1400,0 		"/>
		<polygon fill="#F0F0F0" points="262.5,0 262.5,87.5 350,87.5 		"/>
		<polygon fill="#E6E6E6" points="262.5,0 262.5,0 175,87.5 262.5,87.5 		"/>
		<polygon fill="#FFFFFF" points="175,87.5 262.5,175 262.5,175 262.5,87.5 		"/>
		<polygon fill="#F7F7F7" points="262.5,87.5 262.5,175 350,87.5 		"/>
		<polygon fill="#F0F0F0" points="437.5,0 437.5,87.5 525,87.5 		"/>
		<polygon fill="#E6E6E6" points="437.5,0 437.5,0 350,87.5 437.5,87.5 		"/>
		<polygon fill="#FFFFFF" points="350,87.5 437.5,175 437.5,175 437.5,87.5 		"/>
		<polygon fill="#F7F7F7" points="437.5,87.5 437.5,175 525,87.5 		"/>
		<polygon fill="#F0F0F0" points="87.5,0 87.5,87.5 175,87.5 		"/>
		<polygon fill="#E6E6E6" points="87.5,0 87.5,0 0,87.5 87.5,87.5 		"/>
		<polygon fill="#FFFFFF" points="0,87.5 87.5,175 87.5,175 87.5,87.5 		"/>
		<polygon fill="#F7F7F7" points="87.5,87.5 87.5,175 175,87.5 		"/>
		<polygon fill="#F0F0F0" points="612.5,0 612.5,87.5 700,87.5 		"/>
		<polygon fill="#E6E6E6" points="612.5,0 612.5,0 525,87.5 612.5,87.5 		"/>
		<polygon fill="#FFFFFF" points="525,87.5 612.5,175 612.5,175 612.5,87.5 		"/>
		<polygon fill="#F7F7F7" points="612.5,87.5 612.5,175 700,87.5 		"/>
		<polygon fill="#F0F0F0" points="787.5,0 787.5,87.5 875,87.5 		"/>
		<polygon fill="#E6E6E6" points="787.5,0 787.5,0 700,87.5 787.5,87.5 		"/>
		<polygon fill="#FFFFFF" points="700,87.5 787.5,175 787.5,175 787.5,87.5 		"/>
		<polygon fill="#F7F7F7" points="787.5,87.5 787.5,175 875,87.5 		"/>
		<polygon fill="#F0F0F0" points="962.5,0 962.5,87.5 1050,87.5 		"/>
		<polygon fill="#E6E6E6" points="962.5,0 962.5,0 875,87.5 962.5,87.5 		"/>
		<polygon fill="#FFFFFF" points="875,87.5 962.5,175 962.5,175 962.5,87.5 		"/>
		<polygon fill="#F7F7F7" points="962.5,87.5 962.5,175 1050,87.5 		"/>
		<polygon fill="#F0F0F0" points="1137.5,0 1137.5,87.5 1225,87.5 		"/>
		<polygon fill="#E6E6E6" points="1137.5,0 1137.5,0 1050,87.5 1137.5,87.5 		"/>
		<polygon fill="#FFFFFF" points="1050,87.5 1137.5,175 1137.5,175 1137.5,87.5 		"/>
		<polygon fill="#F7F7F7" points="1137.5,87.5 1137.5,175 1225,87.5 		"/>
		<polygon fill="#F0F0F0" points="1312.5,0 1312.5,87.5 1400,87.5 		"/>
		<polygon fill="#E6E6E6" points="1312.5,0 1312.5,0 1225,87.5 1312.5,87.5 		"/>
		<polygon fill="#FFFFFF" points="1225,87.5 1312.5,175 1312.5,175 1312.5,87.5 		"/>
		<polygon fill="#F7F7F7" points="1312.5,87.5 1312.5,175 1400,87.5 		"/>
		<polygon fill="#F0F0F0" points="175,87.5 175,175 262.5,175 		"/>
		<polygon fill="#E6E6E6" points="175,87.5 175,87.5 87.5,175 175,175 		"/>
		<polygon fill="#FFFFFF" points="87.5,175 175,262.5 175,262.5 175,175 		"/>
		<polygon fill="#F7F7F7" points="175,175 175,262.5 262.5,175 		"/>
		<polygon fill="#F0F0F0" points="350,87.5 350,175 437.5,175 		"/>
		<polygon fill="#E6E6E6" points="350,87.5 350,87.5 262.5,175 350,175 		"/>
		<polygon fill="#FFFFFF" points="262.5,175 350,262.5 350,262.5 350,175 		"/>
		<polygon fill="#F7F7F7" points="350,175 350,262.5 437.5,175 		"/>
		<polygon fill="#F0F0F0" points="0,87.5 0,175 87.5,175 		"/>
		<polygon fill="#F7F7F7" points="0,175 0,262.5 87.5,175 		"/>
		<polygon fill="#F0F0F0" points="525,87.5 525,175 612.5,175 		"/>
		<polygon fill="#E6E6E6" points="525,87.5 525,87.5 437.5,175 525,175 		"/>
		<polygon fill="#FFFFFF" points="437.5,175 525,262.5 525,262.5 525,175 		"/>
		<polygon fill="#F7F7F7" points="525,175 525,262.5 612.5,175 		"/>
		<polygon fill="#F0F0F0" points="700,87.5 700,175 787.5,175 		"/>
		<polygon fill="#E6E6E6" points="700,87.5 700,87.5 612.5,175 700,175 		"/>
		<polygon fill="#FFFFFF" points="612.5,175 700,262.5 700,262.5 700,175 		"/>
		<polygon fill="#F7F7F7" points="700,175 700,262.5 787.5,175 		"/>
		<polygon fill="#F0F0F0" points="875,87.5 875,175 962.5,175 		"/>
		<polygon fill="#E6E6E6" points="875,87.5 875,87.5 787.5,175 875,175 		"/>
		<polygon fill="#FFFFFF" points="787.5,175 875,262.5 875,262.5 875,175 		"/>
		<polygon fill="#F7F7F7" points="875,175 875,262.5 962.5,175 		"/>
		<polygon fill="#F0F0F0" points="1050,87.5 1050,175 1137.5,175 		"/>
		<polygon fill="#E6E6E6" points="1050,87.5 1050,87.5 962.5,175 1050,175 		"/>
		<polygon fill="#FFFFFF" points="962.5,175 1050,262.5 1050,262.5 1050,175 		"/>
		<polygon fill="#F7F7F7" points="1050,175 1050,262.5 1137.5,175 		"/>
		<polygon fill="#F0F0F0" points="1225,87.5 1225,175 1312.5,175 		"/>
		<polygon fill="#E6E6E6" points="1225,87.5 1225,87.5 1137.5,175 1225,175 		"/>
		<polygon fill="#FFFFFF" points="1137.5,175 1225,262.5 1225,262.5 1225,175 		"/>
		<polygon fill="#F7F7F7" points="1225,175 1225,262.5 1312.5,175 		"/>
		<polygon fill="#E6E6E6" points="1400,87.5 1400,87.5 1312.5,175 1400,175 		"/>
		<polygon fill="#FFFFFF" points="1312.5,175 1400,262.5 1400,262.5 1400,175 		"/>
		<polygon fill="#F0F0F0" points="262.5,175 262.5,262.5 350,262.5 		"/>
		<polygon fill="#E6E6E6" points="262.5,175 262.5,175 175,262.5 262.5,262.5 		"/>
		<polygon fill="#FFFFFF" points="175,262.5 262.5,350 262.5,350 262.5,262.5 		"/>
		<polygon fill="#F7F7F7" points="262.5,262.5 262.5,350 350,262.5 		"/>
		<polygon fill="#F0F0F0" points="437.5,175 437.5,262.5 525,262.5 		"/>
		<polygon fill="#E6E6E6" points="437.5,175 437.5,175 350,262.5 437.5,262.5 		"/>
		<polygon fill="#FFFFFF" points="350,262.5 437.5,350 437.5,350 437.5,262.5 		"/>
		<polygon fill="#F7F7F7" points="437.5,262.5 437.5,350 525,262.5 		"/>
		<polygon fill="#F0F0F0" points="87.5,175 87.5,262.5 175,262.5 		"/>
		<polygon fill="#E6E6E6" points="87.5,175 87.5,175 0,262.5 87.5,262.5 		"/>
		<polygon fill="#FFFFFF" points="0,262.5 87.5,350 87.5,350 87.5,262.5 		"/>
		<polygon fill="#F7F7F7" points="87.5,262.5 87.5,350 175,262.5 		"/>
		<polygon fill="#F0F0F0" points="612.5,175 612.5,262.5 700,262.5 		"/>
		<polygon fill="#E6E6E6" points="612.5,175 612.5,175 525,262.5 612.5,262.5 		"/>
		<polygon fill="#FFFFFF" points="525,262.5 612.5,350 612.5,350 612.5,262.5 		"/>
		<polygon fill="#F7F7F7" points="612.5,262.5 612.5,350 700,262.5 		"/>
		<polygon fill="#F0F0F0" points="787.5,175 787.5,262.5 875,262.5 		"/>
		<polygon fill="#E6E6E6" points="787.5,175 787.5,175 700,262.5 787.5,262.5 		"/>
		<polygon fill="#FFFFFF" points="700,262.5 787.5,350 787.5,350 787.5,262.5 		"/>
		<polygon fill="#F7F7F7" points="787.5,262.5 787.5,350 875,262.5 		"/>
		<polygon fill="#F0F0F0" points="962.5,175 962.5,262.5 1050,262.5 		"/>
		<polygon fill="#E6E6E6" points="962.5,175 962.5,175 875,262.5 962.5,262.5 		"/>
		<polygon fill="#FFFFFF" points="875,262.5 962.5,350 962.5,350 962.5,262.5 		"/>
		<polygon fill="#F7F7F7" points="962.5,262.5 962.5,350 1050,262.5 		"/>
		<polygon fill="#F0F0F0" points="1137.5,175 1137.5,262.5 1225,262.5 		"/>
		<polygon fill="#E6E6E6" points="1137.5,175 1137.5,175 1050,262.5 1137.5,262.5 		"/>
		<polygon fill="#FFFFFF" points="1050,262.5 1137.5,350 1137.5,350 1137.5,262.5 		"/>
		<polygon fill="#F7F7F7" points="1137.5,262.5 1137.5,350 1225,262.5 		"/>
		<polygon fill="#F0F0F0" points="1312.5,175 1312.5,262.5 1400,262.5 		"/>
		<polygon fill="#E6E6E6" points="1312.5,175 1312.5,175 1225,262.5 1312.5,262.5 		"/>
		<polygon fill="#FFFFFF" points="1225,262.5 1312.5,350 1312.5,350 1312.5,262.5 		"/>
		<polygon fill="#F7F7F7" points="1312.5,262.5 1312.5,350 1400,262.5 		"/>
		<polygon fill="#F0F0F0" points="175,262.5 175,350 262.5,350 		"/>
		<polygon fill="#E6E6E6" points="175,262.5 175,262.5 87.5,350 175,350 		"/>
		<polygon fill="#FFFFFF" points="87.5,350 175,437.5 175,437.5 175,350 		"/>
		<polygon fill="#F7F7F7" points="175,350 175,437.5 262.5,350 		"/>
		<polygon fill="#F0F0F0" points="350,262.5 350,350 437.5,350 		"/>
		<polygon fill="#E6E6E6" points="350,262.5 350,262.5 262.5,350 350,350 		"/>
		<polygon fill="#FFFFFF" points="262.5,350 350,437.5 350,437.5 350,350 		"/>
		<polygon fill="#F7F7F7" points="350,350 350,437.5 437.5,350 		"/>
		<polygon fill="#F0F0F0" points="0,262.5 0,350 87.5,350 		"/>
		<polygon fill="#F7F7F7" points="0,350 0,437.5 87.5,350 		"/>
		<polygon fill="#F0F0F0" points="525,262.5 525,350 612.5,350 		"/>
		<polygon fill="#E6E6E6" points="525,262.5 525,262.5 437.5,350 525,350 		"/>
		<polygon fill="#FFFFFF" points="437.5,350 525,437.5 525,437.5 525,350 		"/>
		<polygon fill="#F7F7F7" points="525,350 525,437.5 612.5,350 		"/>
		<polygon fill="#F0F0F0" points="700,262.5 700,350 787.5,350 		"/>
		<polygon fill="#E6E6E6" points="700,262.5 700,262.5 612.5,350 700,350 		"/>
		<polygon fill="#FFFFFF" points="612.5,350 700,437.5 700,437.5 700,350 		"/>
		<polygon fill="#F7F7F7" points="700,350 700,437.5 787.5,350 		"/>
		<polygon fill="#F0F0F0" points="875,262.5 875,350 962.5,350 		"/>
		<polygon fill="#E6E6E6" points="875,262.5 875,262.5 787.5,350 875,350 		"/>
		<polygon fill="#FFFFFF" points="787.5,350 875,437.5 875,437.5 875,350 		"/>
		<polygon fill="#F7F7F7" points="875,350 875,437.5 962.5,350 		"/>
		<polygon fill="#F0F0F0" points="1050,262.5 1050,350 1137.5,350 		"/>
		<polygon fill="#E6E6E6" points="1050,262.5 1050,262.5 962.5,350 1050,350 		"/>
		<polygon fill="#FFFFFF" points="962.5,350 1050,437.5 1050,437.5 1050,350 		"/>
		<polygon fill="#F7F7F7" points="1050,350 1050,437.5 1137.5,350 		"/>
		<polygon fill="#F0F0F0" points="1225,262.5 1225,350 1312.5,350 		"/>
		<polygon fill="#E6E6E6" points="1225,262.5 1225,262.5 1137.5,350 1225,350 		"/>
		<polygon fill="#FFFFFF" points="1137.5,350 1225,437.5 1225,437.5 1225,350 		"/>
		<polygon fill="#F7F7F7" points="1225,350 1225,437.5 1312.5,350 		"/>
		<polygon fill="#E6E6E6" points="1400,262.5 1400,262.5 1312.5,350 1400,350 		"/>
		<polygon fill="#FFFFFF" points="1312.5,350 1400,437.5 1400,437.5 1400,350 		"/>
		<polygon fill="#F0F0F0" points="262.5,350 262.5,437.5 350,437.5 		"/>
		<polygon fill="#E6E6E6" points="262.5,350 262.5,350 175,437.5 262.5,437.5 		"/>
		<polygon fill="#FFFFFF" points="175,437.5 262.5,525 262.5,525 262.5,437.5 		"/>
		<polygon fill="#F7F7F7" points="262.5,437.5 262.5,525 350,437.5 		"/>
		<polygon fill="#F0F0F0" points="437.5,350 437.5,437.5 525,437.5 		"/>
		<polygon fill="#E6E6E6" points="437.5,350 437.5,350 350,437.5 437.5,437.5 		"/>
		<polygon fill="#FFFFFF" points="350,437.5 437.5,525 437.5,525 437.5,437.5 		"/>
		<polygon fill="#F7F7F7" points="437.5,437.5 437.5,525 525,437.5 		"/>
		<polygon fill="#F0F0F0" points="87.5,350 87.5,437.5 175,437.5 		"/>
		<polygon fill="#E6E6E6" points="87.5,350 87.5,350 0,437.5 87.5,437.5 		"/>
		<polygon fill="#FFFFFF" points="0,437.5 87.5,525 87.5,525 87.5,437.5 		"/>
		<polygon fill="#F7F7F7" points="87.5,437.5 87.5,525 175,437.5 		"/>
		<polygon fill="#F0F0F0" points="612.5,350 612.5,437.5 700,437.5 		"/>
		<polygon fill="#E6E6E6" points="612.5,350 612.5,350 525,437.5 612.5,437.5 		"/>
		<polygon fill="#FFFFFF" points="525,437.5 612.5,525 612.5,525 612.5,437.5 		"/>
		<polygon fill="#F7F7F7" points="612.5,437.5 612.5,525 700,437.5 		"/>
		<polygon fill="#F0F0F0" points="787.5,350 787.5,437.5 875,437.5 		"/>
		<polygon fill="#E6E6E6" points="787.5,350 787.5,350 700,437.5 787.5,437.5 		"/>
		<polygon fill="#FFFFFF" points="700,437.5 787.5,525 787.5,525 787.5,437.5 		"/>
		<polygon fill="#F7F7F7" points="787.5,437.5 787.5,525 875,437.5 		"/>
		<polygon fill="#F0F0F0" points="962.5,350 962.5,437.5 1050,437.5 		"/>
		<polygon fill="#E6E6E6" points="962.5,350 962.5,350 875,437.5 962.5,437.5 		"/>
		<polygon fill="#FFFFFF" points="875,437.5 962.5,525 962.5,525 962.5,437.5 		"/>
		<polygon fill="#F7F7F7" points="962.5,437.5 962.5,525 1050,437.5 		"/>
		<polygon fill="#F0F0F0" points="1137.5,350 1137.5,437.5 1225,437.5 		"/>
		<polygon fill="#E6E6E6" points="1137.5,350 1137.5,350 1050,437.5 1137.5,437.5 		"/>
		<polygon fill="#FFFFFF" points="1050,437.5 1137.5,525 1137.5,525 1137.5,437.5 		"/>
		<polygon fill="#F7F7F7" points="1137.5,437.5 1137.5,525 1225,437.5 		"/>
		<polygon fill="#F0F0F0" points="1312.5,350 1312.5,437.5 1400,437.5 		"/>
		<polygon fill="#E6E6E6" points="1312.5,350 1312.5,350 1225,437.5 1312.5,437.5 		"/>
		<polygon fill="#FFFFFF" points="1225,437.5 1312.5,525 1312.5,525 1312.5,437.5 		"/>
		<polygon fill="#F7F7F7" points="1312.5,437.5 1312.5,525 1400,437.5 		"/>
		<polygon fill="#F0F0F0" points="175,437.5 175,525 262.5,525 		"/>
		<polygon fill="#E6E6E6" points="175,437.5 175,437.5 87.5,525 175,525 		"/>
		<polygon fill="#FFFFFF" points="87.5,525 175,612.5 175,612.5 175,525 		"/>
		<polygon fill="#F7F7F7" points="175,525 175,612.5 262.5,525 		"/>
		<polygon fill="#F0F0F0" points="350,437.5 350,525 437.5,525 		"/>
		<polygon fill="#E6E6E6" points="350,437.5 350,437.5 262.5,525 350,525 		"/>
		<polygon fill="#FFFFFF" points="262.5,525 350,612.5 350,612.5 350,525 		"/>
		<polygon fill="#F7F7F7" points="350,525 350,612.5 437.5,525 		"/>
		<polygon fill="#F0F0F0" points="0,437.5 0,525 87.5,525 		"/>
		<polygon fill="#F7F7F7" points="0,525 0,612.5 87.5,525 		"/>
		<polygon fill="#F0F0F0" points="525,437.5 525,525 612.5,525 		"/>
		<polygon fill="#E6E6E6" points="525,437.5 525,437.5 437.5,525 525,525 		"/>
		<polygon fill="#FFFFFF" points="437.5,525 525,612.5 525,612.5 525,525 		"/>
		<polygon fill="#F7F7F7" points="525,525 525,612.5 612.5,525 		"/>
		<polygon fill="#F0F0F0" points="700,437.5 700,525 787.5,525 		"/>
		<polygon fill="#E6E6E6" points="700,437.5 700,437.5 612.5,525 700,525 		"/>
		<polygon fill="#FFFFFF" points="612.5,525 700,612.5 700,612.5 700,525 		"/>
		<polygon fill="#F7F7F7" points="700,525 700,612.5 787.5,525 		"/>
		<polygon fill="#F0F0F0" points="875,437.5 875,525 962.5,525 		"/>
		<polygon fill="#E6E6E6" points="875,437.5 875,437.5 787.5,525 875,525 		"/>
		<polygon fill="#FFFFFF" points="787.5,525 875,612.5 875,612.5 875,525 		"/>
		<polygon fill="#F7F7F7" points="875,525 875,612.5 962.5,525 		"/>
		<polygon fill="#F0F0F0" points="1050,437.5 1050,525 1137.5,525 		"/>
		<polygon fill="#E6E6E6" points="1050,437.5 1050,437.5 962.5,525 1050,525 		"/>
		<polygon fill="#FFFFFF" points="962.5,525 1050,612.5 1050,612.5 1050,525 		"/>
		<polygon fill="#F7F7F7" points="1050,525 1050,612.5 1137.5,525 		"/>
		<polygon fill="#F0F0F0" points="1225,437.5 1225,525 1312.5,525 		"/>
		<polygon fill="#E6E6E6" points="1225,437.5 1225,437.5 1137.5,525 1225,525 		"/>
		<polygon fill="#FFFFFF" points="1137.5,525 1225,612.5 1225,612.5 1225,525 		"/>
		<polygon fill="#F7F7F7" points="1225,525 1225,612.5 1312.5,525 		"/>
		<polygon fill="#E6E6E6" points="1400,437.5 1400,437.5 1312.5,525 1400,525 		"/>
		<polygon fill="#FFFFFF" points="1312.5,525 1400,612.5 1400,612.5 1400,525 		"/>
		<polygon fill="#F0F0F0" points="262.5,525 262.5,612.5 350,612.5 		"/>
		<polygon fill="#E6E6E6" points="262.5,525 262.5,525 175,612.5 262.5,612.5 		"/>
		<polygon fill="#FFFFFF" points="175,612.5 262.5,700 262.5,700 262.5,612.5 		"/>
		<polygon fill="#F7F7F7" points="262.5,612.5 262.5,700 350,612.5 		"/>
		<polygon fill="#F0F0F0" points="437.5,525 437.5,612.5 525,612.5 		"/>
		<polygon fill="#E6E6E6" points="437.5,525 437.5,525 350,612.5 437.5,612.5 		"/>
		<polygon fill="#FFFFFF" points="350,612.5 437.5,700 437.5,700 437.5,612.5 		"/>
		<polygon fill="#F7F7F7" points="437.5,612.5 437.5,700 525,612.5 		"/>
		<polygon fill="#F0F0F0" points="87.5,525 87.5,612.5 175,612.5 		"/>
		<polygon fill="#E6E6E6" points="87.5,525 87.5,525 0,612.5 87.5,612.5 		"/>
		<polygon fill="#FFFFFF" points="0,612.5 87.5,700 87.5,700 87.5,612.5 		"/>
		<polygon fill="#F7F7F7" points="87.5,612.5 87.5,700 175,612.5 		"/>
		<polygon fill="#F0F0F0" points="612.5,525 612.5,612.5 700,612.5 		"/>
		<polygon fill="#E6E6E6" points="612.5,525 612.5,525 525,612.5 612.5,612.5 		"/>
		<polygon fill="#FFFFFF" points="525,612.5 612.5,700 612.5,700 612.5,612.5 		"/>
		<polygon fill="#F7F7F7" points="612.5,612.5 612.5,700 700,612.5 		"/>
		<polygon fill="#F0F0F0" points="787.5,525 787.5,612.5 875,612.5 		"/>
		<polygon fill="#E6E6E6" points="787.5,525 787.5,525 700,612.5 787.5,612.5 		"/>
		<polygon fill="#FFFFFF" points="700,612.5 787.5,700 787.5,700 787.5,612.5 		"/>
		<polygon fill="#F7F7F7" points="787.5,612.5 787.5,700 875,612.5 		"/>
		<polygon fill="#F0F0F0" points="962.5,525 962.5,612.5 1050,612.5 		"/>
		<polygon fill="#E6E6E6" points="962.5,525 962.5,525 875,612.5 962.5,612.5 		"/>
		<polygon fill="#FFFFFF" points="875,612.5 962.5,700 962.5,700 962.5,612.5 		"/>
		<polygon fill="#F7F7F7" points="962.5,612.5 962.5,700 1050,612.5 		"/>
		<polygon fill="#F0F0F0" points="1137.5,525 1137.5,612.5 1225,612.5 		"/>
		<polygon fill="#E6E6E6" points="1137.5,525 1137.5,525 1050,612.5 1137.5,612.5 		"/>
		<polygon fill="#FFFFFF" points="1050,612.5 1137.5,700 1137.5,700 1137.5,612.5 		"/>
		<polygon fill="#F7F7F7" points="1137.5,612.5 1137.5,700 1225,612.5 		"/>
		<polygon fill="#F0F0F0" points="1312.5,525 1312.5,612.5 1400,612.5 		"/>
		<polygon fill="#E6E6E6" points="1312.5,525 1312.5,525 1225,612.5 1312.5,612.5 		"/>
		<polygon fill="#FFFFFF" points="1225,612.5 1312.5,700 1312.5,700 1312.5,612.5 		"/>
		<polygon fill="#F7F7F7" points="1312.5,612.5 1312.5,700 1400,612.5 		"/>
		<polygon fill="#F0F0F0" points="175,612.5 175,700 262.5,700 		"/>
		<polygon fill="#E6E6E6" points="175,612.5 175,612.5 87.5,700 175,700 		"/>
		<polygon fill="#FFFFFF" points="87.5,700 175,787.5 175,787.5 175,700 		"/>
		<polygon fill="#F7F7F7" points="175,700 175,787.5 262.5,700 		"/>
		<polygon fill="#F0F0F0" points="350,612.5 350,700 437.5,700 		"/>
		<polygon fill="#E6E6E6" points="350,612.5 350,612.5 262.5,700 350,700 		"/>
		<polygon fill="#FFFFFF" points="262.5,700 350,787.5 350,787.5 350,700 		"/>
		<polygon fill="#F7F7F7" points="350,700 350,787.5 437.5,700 		"/>
		<polygon fill="#F0F0F0" points="0,612.5 0,700 87.5,700 		"/>
		<polygon fill="#F7F7F7" points="0,700 0,787.5 87.5,700 		"/>
		<polygon fill="#F0F0F0" points="525,612.5 525,700 612.5,700 		"/>
		<polygon fill="#E6E6E6" points="525,612.5 525,612.5 437.5,700 525,700 		"/>
		<polygon fill="#FFFFFF" points="437.5,700 525,787.5 525,787.5 525,700 		"/>
		<polygon fill="#F7F7F7" points="525,700 525,787.5 612.5,700 		"/>
		<polygon fill="#F0F0F0" points="700,612.5 700,700 787.5,700 		"/>
		<polygon fill="#E6E6E6" points="700,612.5 700,612.5 612.5,700 700,700 		"/>
		<polygon fill="#FFFFFF" points="612.5,700 700,787.5 700,787.5 700,700 		"/>
		<polygon fill="#F7F7F7" points="700,700 700,787.5 787.5,700 		"/>
		<polygon fill="#F0F0F0" points="875,612.5 875,700 962.5,700 		"/>
		<polygon fill="#E6E6E6" points="875,612.5 875,612.5 787.5,700 875,700 		"/>
		<polygon fill="#FFFFFF" points="787.5,700 875,787.5 875,787.5 875,700 		"/>
		<polygon fill="#F7F7F7" points="875,700 875,787.5 962.5,700 		"/>
		<polygon fill="#F0F0F0" points="1050,612.5 1050,700 1137.5,700 		"/>
		<polygon fill="#E6E6E6" points="1050,612.5 1050,612.5 962.5,700 1050,700 		"/>
		<polygon fill="#FFFFFF" points="962.5,700 1050,787.5 1050,787.5 1050,700 		"/>
		<polygon fill="#F7F7F7" points="1050,700 1050,787.5 1137.5,700 		"/>
		<polygon fill="#F0F0F0" points="1225,612.5 1225,700 1312.5,700 		"/>
		<polygon fill="#E6E6E6" points="1225,612.5 1225,612.5 1137.5,700 1225,700 		"/>
		<polygon fill="#FFFFFF" points="1137.5,700 1225,787.5 1225,787.5 1225,700 		"/>
		<polygon fill="#F7F7F7" points="1225,700 1225,787.5 1312.5,700 		"/>
		<polygon fill="#E6E6E6" points="1400,612.5 1400,612.5 1312.5,700 1400,700 		"/>
		<polygon fill="#FFFFFF" points="1312.5,700 1400,787.5 1400,787.5 1400,700 		"/>
		<polygon fill="#F0F0F0" points="262.5,700 262.5,787.5 350,787.5 		"/>
		<polygon fill="#E6E6E6" points="262.5,700 262.5,700 175,787.5 262.5,787.5 		"/>
		<polygon fill="#FFFFFF" points="175,787.5 262.5,875 262.5,875 262.5,787.5 		"/>
		<polygon fill="#F7F7F7" points="262.5,787.5 262.5,875 350,787.5 		"/>
		<polygon fill="#F0F0F0" points="437.5,700 437.5,787.5 525,787.5 		"/>
		<polygon fill="#E6E6E6" points="437.5,700 437.5,700 350,787.5 437.5,787.5 		"/>
		<polygon fill="#FFFFFF" points="350,787.5 437.5,875 437.5,875 437.5,787.5 		"/>
		<polygon fill="#F7F7F7" points="437.5,787.5 437.5,875 525,787.5 		"/>
		<polygon fill="#F0F0F0" points="87.5,700 87.5,787.5 175,787.5 		"/>
		<polygon fill="#E6E6E6" points="87.5,700 87.5,700 0,787.5 87.5,787.5 		"/>
		<polygon fill="#FFFFFF" points="0,787.5 87.5,875 87.5,875 87.5,787.5 		"/>
		<polygon fill="#F7F7F7" points="87.5,787.5 87.5,875 175,787.5 		"/>
		<polygon fill="#F0F0F0" points="612.5,700 612.5,787.5 700,787.5 		"/>
		<polygon fill="#E6E6E6" points="612.5,700 612.5,700 525,787.5 612.5,787.5 		"/>
		<polygon fill="#FFFFFF" points="525,787.5 612.5,875 612.5,875 612.5,787.5 		"/>
		<polygon fill="#F7F7F7" points="612.5,787.5 612.5,875 700,787.5 		"/>
		<polygon fill="#F0F0F0" points="787.5,700 787.5,787.5 875,787.5 		"/>
		<polygon fill="#E6E6E6" points="787.5,700 787.5,700 700,787.5 787.5,787.5 		"/>
		<polygon fill="#FFFFFF" points="700,787.5 787.5,875 787.5,875 787.5,787.5 		"/>
		<polygon fill="#F7F7F7" points="787.5,787.5 787.5,875 875,787.5 		"/>
		<polygon fill="#F0F0F0" points="962.5,700 962.5,787.5 1050,787.5 		"/>
		<polygon fill="#E6E6E6" points="962.5,700 962.5,700 875,787.5 962.5,787.5 		"/>
		<polygon fill="#FFFFFF" points="875,787.5 962.5,875 962.5,875 962.5,787.5 		"/>
		<polygon fill="#F7F7F7" points="962.5,787.5 962.5,875 1050,787.5 		"/>
		<polygon fill="#F0F0F0" points="1137.5,700 1137.5,787.5 1225,787.5 		"/>
		<polygon fill="#E6E6E6" points="1137.5,700 1137.5,700 1050,787.5 1137.5,787.5 		"/>
		<polygon fill="#FFFFFF" points="1050,787.5 1137.5,875 1137.5,875 1137.5,787.5 		"/>
		<polygon fill="#F7F7F7" points="1137.5,787.5 1137.5,875 1225,787.5 		"/>
		<polygon fill="#F0F0F0" points="1312.5,700 1312.5,787.5 1400,787.5 		"/>
		<polygon fill="#E6E6E6" points="1312.5,700 1312.5,700 1225,787.5 1312.5,787.5 		"/>
		<polygon fill="#FFFFFF" points="1225,787.5 1312.5,875 1312.5,875 1312.5,787.5 		"/>
		<polygon fill="#F7F7F7" points="1312.5,787.5 1312.5,875 1400,787.5 		"/>
		<polygon fill="#F0F0F0" points="175,787.5 175,875 262.5,875 		"/>
		<polygon fill="#E6E6E6" points="175,787.5 175,787.5 87.5,875 175,875 		"/>
		<polygon fill="#FFFFFF" points="87.5,875 175,962.5 175,962.5 175,875 		"/>
		<polygon fill="#F7F7F7" points="175,875 175,962.5 262.5,875 		"/>
		<polygon fill="#F0F0F0" points="350,787.5 350,875 437.5,875 		"/>
		<polygon fill="#E6E6E6" points="350,787.5 350,787.5 262.5,875 350,875 		"/>
		<polygon fill="#FFFFFF" points="262.5,875 350,962.5 350,962.5 350,875 		"/>
		<polygon fill="#F7F7F7" points="350,875 350,962.5 437.5,875 		"/>
		<polygon fill="#F0F0F0" points="0,787.5 0,875 87.5,875 		"/>
		<polygon fill="#F7F7F7" points="0,875 0,962.5 87.5,875 		"/>
		<polygon fill="#F0F0F0" points="525,787.5 525,875 612.5,875 		"/>
		<polygon fill="#E6E6E6" points="525,787.5 525,787.5 437.5,875 525,875 		"/>
		<polygon fill="#FFFFFF" points="437.5,875 525,962.5 525,962.5 525,875 		"/>
		<polygon fill="#F7F7F7" points="525,875 525,962.5 612.5,875 		"/>
		<polygon fill="#F0F0F0" points="700,787.5 700,875 787.5,875 		"/>
		<polygon fill="#E6E6E6" points="700,787.5 700,787.5 612.5,875 700,875 		"/>
		<polygon fill="#FFFFFF" points="612.5,875 700,962.5 700,962.5 700,875 		"/>
		<polygon fill="#F7F7F7" points="700,875 700,962.5 787.5,875 		"/>
		<polygon fill="#F0F0F0" points="875,787.5 875,875 962.5,875 		"/>
		<polygon fill="#E6E6E6" points="875,787.5 875,787.5 787.5,875 875,875 		"/>
		<polygon fill="#FFFFFF" points="787.5,875 875,962.5 875,962.5 875,875 		"/>
		<polygon fill="#F7F7F7" points="875,875 875,962.5 962.5,875 		"/>
		<polygon fill="#F0F0F0" points="1050,787.5 1050,875 1137.5,875 		"/>
		<polygon fill="#E6E6E6" points="1050,787.5 1050,787.5 962.5,875 1050,875 		"/>
		<polygon fill="#FFFFFF" points="962.5,875 1050,962.5 1050,962.5 1050,875 		"/>
		<polygon fill="#F7F7F7" points="1050,875 1050,962.5 1137.5,875 		"/>
		<polygon fill="#F0F0F0" points="1225,787.5 1225,875 1312.5,875 		"/>
		<polygon fill="#E6E6E6" points="1225,787.5 1225,787.5 1137.5,875 1225,875 		"/>
		<polygon fill="#FFFFFF" points="1137.5,875 1225,962.5 1225,962.5 1225,875 		"/>
		<polygon fill="#F7F7F7" points="1225,875 1225,962.5 1312.5,875 		"/>
		<polygon fill="#E6E6E6" points="1400,787.5 1400,787.5 1312.5,875 1400,875 		"/>
		<polygon fill="#FFFFFF" points="1312.5,875 1400,962.5 1400,962.5 1400,875 		"/>
		<polygon fill="#F0F0F0" points="262.5,875 262.5,962.5 350,962.5 		"/>
		<polygon fill="#E6E6E6" points="262.5,875 262.5,875 175,962.5 262.5,962.5 		"/>
		<polygon fill="#FFFFFF" points="175,962.5 262.5,1050 262.5,1050 262.5,962.5 		"/>
		<polygon fill="#F7F7F7" points="262.5,962.5 262.5,1050 350,962.5 		"/>
		<polygon fill="#F0F0F0" points="437.5,875 437.5,962.5 525,962.5 		"/>
		<polygon fill="#E6E6E6" points="437.5,875 437.5,875 350,962.5 437.5,962.5 		"/>
		<polygon fill="#FFFFFF" points="350,962.5 437.5,1050 437.5,1050 437.5,962.5 		"/>
		<polygon fill="#F7F7F7" points="437.5,962.5 437.5,1050 525,962.5 		"/>
		<polygon fill="#F0F0F0" points="87.5,875 87.5,962.5 175,962.5 		"/>
		<polygon fill="#E6E6E6" points="87.5,875 87.5,875 0,962.5 87.5,962.5 		"/>
		<polygon fill="#FFFFFF" points="0,962.5 87.5,1050 87.5,1050 87.5,962.5 		"/>
		<polygon fill="#F7F7F7" points="87.5,962.5 87.5,1050 175,962.5 		"/>
		<polygon fill="#F0F0F0" points="612.5,875 612.5,962.5 700,962.5 		"/>
		<polygon fill="#E6E6E6" points="612.5,875 612.5,875 525,962.5 612.5,962.5 		"/>
		<polygon fill="#FFFFFF" points="525,962.5 612.5,1050 612.5,1050 612.5,962.5 		"/>
		<polygon fill="#F7F7F7" points="612.5,962.5 612.5,1050 700,962.5 		"/>
		<polygon fill="#F0F0F0" points="787.5,875 787.5,962.5 875,962.5 		"/>
		<polygon fill="#E6E6E6" points="787.5,875 787.5,875 700,962.5 787.5,962.5 		"/>
		<polygon fill="#FFFFFF" points="700,962.5 787.5,1050 787.5,1050 787.5,962.5 		"/>
		<polygon fill="#F7F7F7" points="787.5,962.5 787.5,1050 875,962.5 		"/>
		<polygon fill="#F0F0F0" points="962.5,875 962.5,962.5 1050,962.5 		"/>
		<polygon fill="#E6E6E6" points="962.5,875 962.5,875 875,962.5 962.5,962.5 		"/>
		<polygon fill="#FFFFFF" points="875,962.5 962.5,1050 962.5,1050 962.5,962.5 		"/>
		<polygon fill="#F7F7F7" points="962.5,962.5 962.5,1050 1050,962.5 		"/>
		<polygon fill="#F0F0F0" points="1137.5,875 1137.5,962.5 1225,962.5 		"/>
		<polygon fill="#E6E6E6" points="1137.5,875 1137.5,875 1050,962.5 1137.5,962.5 		"/>
		<polygon fill="#FFFFFF" points="1050,962.5 1137.5,1050 1137.5,1050 1137.5,962.5 		"/>
		<polygon fill="#F7F7F7" points="1137.5,962.5 1137.5,1050 1225,962.5 		"/>
		<polygon fill="#F0F0F0" points="1312.5,875 1312.5,962.5 1400,962.5 		"/>
		<polygon fill="#E6E6E6" points="1312.5,875 1312.5,875 1225,962.5 1312.5,962.5 		"/>
		<polygon fill="#FFFFFF" points="1225,962.5 1312.5,1050 1312.5,1050 1312.5,962.5 		"/>
		<polygon fill="#F7F7F7" points="1312.5,962.5 1312.5,1050 1400,962.5 		"/>
		<polygon fill="#F0F0F0" points="175,962.5 175,1050 262.5,1050 		"/>
		<polygon fill="#E6E6E6" points="175,962.5 175,962.5 87.5,1050 175,1050 		"/>
		<polygon fill="#FFFFFF" points="87.5,1050 175,1137.5 175,1137.5 175,1050 		"/>
		<polygon fill="#F7F7F7" points="175,1050 175,1137.5 262.5,1050 		"/>
		<polygon fill="#F0F0F0" points="350,962.5 350,1050 437.5,1050 		"/>
		<polygon fill="#E6E6E6" points="350,962.5 350,962.5 262.5,1050 350,1050 		"/>
		<polygon fill="#FFFFFF" points="262.5,1050 350,1137.5 350,1137.5 350,1050 		"/>
		<polygon fill="#F7F7F7" points="350,1050 350,1137.5 437.5,1050 		"/>
		<polygon fill="#F0F0F0" points="0,962.5 0,1050 87.5,1050 		"/>
		<polygon fill="#F7F7F7" points="0,1050 0,1137.5 87.5,1050 		"/>
		<polygon fill="#F0F0F0" points="525,962.5 525,1050 612.5,1050 		"/>
		<polygon fill="#E6E6E6" points="525,962.5 525,962.5 437.5,1050 525,1050 		"/>
		<polygon fill="#FFFFFF" points="437.5,1050 525,1137.5 525,1137.5 525,1050 		"/>
		<polygon fill="#F7F7F7" points="525,1050 525,1137.5 612.5,1050 		"/>
		<polygon fill="#F0F0F0" points="700,962.5 700,1050 787.5,1050 		"/>
		<polygon fill="#E6E6E6" points="700,962.5 700,962.5 612.5,1050 700,1050 		"/>
		<polygon fill="#FFFFFF" points="612.5,1050 700,1137.5 700,1137.5 700,1050 		"/>
		<polygon fill="#F7F7F7" points="700,1050 700,1137.5 787.5,1050 		"/>
		<polygon fill="#F0F0F0" points="875,962.5 875,1050 962.5,1050 		"/>
		<polygon fill="#E6E6E6" points="875,962.5 875,962.5 787.5,1050 875,1050 		"/>
		<polygon fill="#FFFFFF" points="787.5,1050 875,1137.5 875,1137.5 875,1050 		"/>
		<polygon fill="#F7F7F7" points="875,1050 875,1137.5 962.5,1050 		"/>
		<polygon fill="#F0F0F0" points="1050,962.5 1050,1050 1137.5,1050 		"/>
		<polygon fill="#E6E6E6" points="1050,962.5 1050,962.5 962.5,1050 1050,1050 		"/>
		<polygon fill="#FFFFFF" points="962.5,1050 1050,1137.5 1050,1137.5 1050,1050 		"/>
		<polygon fill="#F7F7F7" points="1050,1050 1050,1137.5 1137.5,1050 		"/>
		<polygon fill="#F0F0F0" points="1225,962.5 1225,1050 1312.5,1050 		"/>
		<polygon fill="#E6E6E6" points="1225,962.5 1225,962.5 1137.5,1050 1225,1050 		"/>
		<polygon fill="#FFFFFF" points="1137.5,1050 1225,1137.5 1225,1137.5 1225,1050 		"/>
		<polygon fill="#F7F7F7" points="1225,1050 1225,1137.5 1312.5,1050 		"/>
		<polygon fill="#E6E6E6" points="1400,962.5 1400,962.5 1312.5,1050 1400,1050 		"/>
		<polygon fill="#FFFFFF" points="1312.5,1050 1400,1137.5 1400,1137.5 1400,1050 		"/>
		<polygon fill="#F0F0F0" points="262.5,1050 262.5,1137.5 350,1137.5 		"/>
		<polygon fill="#E6E6E6" points="262.5,1050 262.5,1050 175,1137.5 262.5,1137.5 		"/>
		<polygon fill="#FFFFFF" points="175,1137.5 262.5,1225 262.5,1225 262.5,1137.5 		"/>
		<polygon fill="#F7F7F7" points="262.5,1137.5 262.5,1225 350,1137.5 		"/>
		<polygon fill="#F0F0F0" points="437.5,1050 437.5,1137.5 525,1137.5 		"/>
		<polygon fill="#E6E6E6" points="437.5,1050 437.5,1050 350,1137.5 437.5,1137.5 		"/>
		<polygon fill="#FFFFFF" points="350,1137.5 437.5,1225 437.5,1225 437.5,1137.5 		"/>
		<polygon fill="#F7F7F7" points="437.5,1137.5 437.5,1225 525,1137.5 		"/>
		<polygon fill="#F0F0F0" points="87.5,1050 87.5,1137.5 175,1137.5 		"/>
		<polygon fill="#E6E6E6" points="87.5,1050 87.5,1050 0,1137.5 87.5,1137.5 		"/>
		<polygon fill="#FFFFFF" points="0,1137.5 87.5,1225 87.5,1225 87.5,1137.5 		"/>
		<polygon fill="#F7F7F7" points="87.5,1137.5 87.5,1225 175,1137.5 		"/>
		<polygon fill="#F0F0F0" points="612.5,1050 612.5,1137.5 700,1137.5 		"/>
		<polygon fill="#E6E6E6" points="612.5,1050 612.5,1050 525,1137.5 612.5,1137.5 		"/>
		<polygon fill="#FFFFFF" points="525,1137.5 612.5,1225 612.5,1225 612.5,1137.5 		"/>
		<polygon fill="#F7F7F7" points="612.5,1137.5 612.5,1225 700,1137.5 		"/>
		<polygon fill="#F0F0F0" points="787.5,1050 787.5,1137.5 875,1137.5 		"/>
		<polygon fill="#E6E6E6" points="787.5,1050 787.5,1050 700,1137.5 787.5,1137.5 		"/>
		<polygon fill="#FFFFFF" points="700,1137.5 787.5,1225 787.5,1225 787.5,1137.5 		"/>
		<polygon fill="#F7F7F7" points="787.5,1137.5 787.5,1225 875,1137.5 		"/>
		<polygon fill="#F0F0F0" points="962.5,1050 962.5,1137.5 1050,1137.5 		"/>
		<polygon fill="#E6E6E6" points="962.5,1050 962.5,1050 875,1137.5 962.5,1137.5 		"/>
		<polygon fill="#FFFFFF" points="875,1137.5 962.5,1225 962.5,1225 962.5,1137.5 		"/>
		<polygon fill="#F7F7F7" points="962.5,1137.5 962.5,1225 1050,1137.5 		"/>
		<polygon fill="#F0F0F0" points="1137.5,1050 1137.5,1137.5 1225,1137.5 		"/>
		<polygon fill="#E6E6E6" points="1137.5,1050 1137.5,1050 1050,1137.5 1137.5,1137.5 		"/>
		<polygon fill="#FFFFFF" points="1050,1137.5 1137.5,1225 1137.5,1225 1137.5,1137.5 		"/>
		<polygon fill="#F7F7F7" points="1137.5,1137.5 1137.5,1225 1225,1137.5 		"/>
		<polygon fill="#F0F0F0" points="1312.5,1050 1312.5,1137.5 1400,1137.5 		"/>
		<polygon fill="#E6E6E6" points="1312.5,1050 1312.5,1050 1225,1137.5 1312.5,1137.5 		"/>
		<polygon fill="#FFFFFF" points="1225,1137.5 1312.5,1225 1312.5,1225 1312.5,1137.5 		"/>
		<polygon fill="#F7F7F7" points="1312.5,1137.5 1312.5,1225 1400,1137.5 		"/>
		<polygon fill="#F0F0F0" points="175,1137.5 175,1225 262.5,1225 		"/>
		<polygon fill="#E6E6E6" points="175,1137.5 175,1137.5 87.5,1225 175,1225 		"/>
		<polygon fill="#FFFFFF" points="87.5,1225 175,1312.5 175,1312.5 175,1225 		"/>
		<polygon fill="#F7F7F7" points="175,1225 175,1312.5 262.5,1225 		"/>
		<polygon fill="#F0F0F0" points="350,1137.5 350,1225 437.5,1225 		"/>
		<polygon fill="#E6E6E6" points="350,1137.5 350,1137.5 262.5,1225 350,1225 		"/>
		<polygon fill="#FFFFFF" points="262.5,1225 350,1312.5 350,1312.5 350,1225 		"/>
		<polygon fill="#F7F7F7" points="350,1225 350,1312.5 437.5,1225 		"/>
		<polygon fill="#F0F0F0" points="0,1137.5 0,1225 87.5,1225 		"/>
		<polygon fill="#F7F7F7" points="0,1225 0,1312.5 87.5,1225 		"/>
		<polygon fill="#F0F0F0" points="525,1137.5 525,1225 612.5,1225 		"/>
		<polygon fill="#E6E6E6" points="525,1137.5 525,1137.5 437.5,1225 525,1225 		"/>
		<polygon fill="#FFFFFF" points="437.5,1225 525,1312.5 525,1312.5 525,1225 		"/>
		<polygon fill="#F7F7F7" points="525,1225 525,1312.5 612.5,1225 		"/>
		<polygon fill="#F0F0F0" points="700,1137.5 700,1225 787.5,1225 		"/>
		<polygon fill="#E6E6E6" points="700,1137.5 700,1137.5 612.5,1225 700,1225 		"/>
		<polygon fill="#FFFFFF" points="612.5,1225 700,1312.5 700,1312.5 700,1225 		"/>
		<polygon fill="#F7F7F7" points="700,1225 700,1312.5 787.5,1225 		"/>
		<polygon fill="#F0F0F0" points="875,1137.5 875,1225 962.5,1225 		"/>
		<polygon fill="#E6E6E6" points="875,1137.5 875,1137.5 787.5,1225 875,1225 		"/>
		<polygon fill="#FFFFFF" points="787.5,1225 875,1312.5 875,1312.5 875,1225 		"/>
		<polygon fill="#F7F7F7" points="875,1225 875,1312.5 962.5,1225 		"/>
		<polygon fill="#F0F0F0" points="1050,1137.5 1050,1225 1137.5,1225 		"/>
		<polygon fill="#E6E6E6" points="1050,1137.5 1050,1137.5 962.5,1225 1050,1225 		"/>
		<polygon fill="#FFFFFF" points="962.5,1225 1050,1312.5 1050,1312.5 1050,1225 		"/>
		<polygon fill="#F7F7F7" points="1050,1225 1050,1312.5 1137.5,1225 		"/>
		<polygon fill="#F0F0F0" points="1225,1137.5 1225,1225 1312.5,1225 		"/>
		<polygon fill="#E6E6E6" points="1225,1137.5 1225,1137.5 1137.5,1225 1225,1225 		"/>
		<polygon fill="#FFFFFF" points="1137.5,1225 1225,1312.5 1225,1312.5 1225,1225 		"/>
		<polygon fill="#F7F7F7" points="1225,1225 1225,1312.5 1312.5,1225 		"/>
		<polygon fill="#E6E6E6" points="1400,1137.5 1400,1137.5 1312.5,1225 1400,1225 		"/>
		<polygon fill="#FFFFFF" points="1312.5,1225 1400,1312.5 1400,1312.5 1400,1225 		"/>
		<polygon fill="#F0F0F0" points="262.5,1225 262.5,1312.5 350,1312.5 		"/>
		<polygon fill="#E6E6E6" points="262.5,1225 262.5,1225 175,1312.5 262.5,1312.5 		"/>
		<polygon fill="#FFFFFF" points="175,1312.5 262.5,1400 262.5,1400 262.5,1312.5 		"/>
		<polygon fill="#F7F7F7" points="262.5,1312.5 262.5,1400 350,1312.5 		"/>
		<polygon fill="#F0F0F0" points="437.5,1225 437.5,1312.5 525,1312.5 		"/>
		<polygon fill="#E6E6E6" points="437.5,1225 437.5,1225 350,1312.5 437.5,1312.5 		"/>
		<polygon fill="#FFFFFF" points="350,1312.5 437.5,1400 437.5,1400 437.5,1312.5 		"/>
		<polygon fill="#F7F7F7" points="437.5,1312.5 437.5,1400 525,1312.5 		"/>
		<polygon fill="#F0F0F0" points="87.5,1225 87.5,1312.5 175,1312.5 		"/>
		<polygon fill="#E6E6E6" points="87.5,1225 87.5,1225 0,1312.5 87.5,1312.5 		"/>
		<polygon fill="#FFFFFF" points="0,1312.5 87.5,1400 87.5,1400 87.5,1312.5 		"/>
		<polygon fill="#F7F7F7" points="87.5,1312.5 87.5,1400 175,1312.5 		"/>
		<polygon fill="#F0F0F0" points="612.5,1225 612.5,1312.5 700,1312.5 		"/>
		<polygon fill="#E6E6E6" points="612.5,1225 612.5,1225 525,1312.5 612.5,1312.5 		"/>
		<polygon fill="#FFFFFF" points="525,1312.5 612.5,1400 612.5,1400 612.5,1312.5 		"/>
		<polygon fill="#F7F7F7" points="612.5,1312.5 612.5,1400 700,1312.5 		"/>
		<polygon fill="#F0F0F0" points="787.5,1225 787.5,1312.5 875,1312.5 		"/>
		<polygon fill="#E6E6E6" points="787.5,1225 787.5,1225 700,1312.5 787.5,1312.5 		"/>
		<polygon fill="#FFFFFF" points="700,1312.5 787.5,1400 787.5,1400 787.5,1312.5 		"/>
		<polygon fill="#F7F7F7" points="787.5,1312.5 787.5,1400 875,1312.5 		"/>
		<polygon fill="#F0F0F0" points="962.5,1225 962.5,1312.5 1050,1312.5 		"/>
		<polygon fill="#E6E6E6" points="962.5,1225 962.5,1225 875,1312.5 962.5,1312.5 		"/>
		<polygon fill="#FFFFFF" points="875,1312.5 962.5,1400 962.5,1400 962.5,1312.5 		"/>
		<polygon fill="#F7F7F7" points="962.5,1312.5 962.5,1400 1050,1312.5 		"/>
		<polygon fill="#F0F0F0" points="1137.5,1225 1137.5,1312.5 1225,1312.5 		"/>
		<polygon fill="#E6E6E6" points="1137.5,1225 1137.5,1225 1050,1312.5 1137.5,1312.5 		"/>
		<polygon fill="#FFFFFF" points="1050,1312.5 1137.5,1400 1137.5,1400 1137.5,1312.5 		"/>
		<polygon fill="#F7F7F7" points="1137.5,1312.5 1137.5,1400 1225,1312.5 		"/>
		<polygon fill="#F0F0F0" points="1312.5,1225 1312.5,1312.5 1400,1312.5 		"/>
		<polygon fill="#E6E6E6" points="1312.5,1225 1312.5,1225 1225,1312.5 1312.5,1312.5 		"/>
		<polygon fill="#FFFFFF" points="1225,1312.5 1312.5,1400 1312.5,1400 1312.5,1312.5 		"/>
		<polygon fill="#F7F7F7" points="1312.5,1312.5 1312.5,1400 1400,1312.5 		"/>
		<polygon fill="#F0F0F0" points="175,1312.5 175,1400 262.5,1400 		"/>
		<polygon fill="#E6E6E6" points="175,1312.5 175,1312.5 87.5,1400 175,1400 		"/>
		<polygon fill="#F0F0F0" points="350,1312.5 350,1400 437.5,1400 		"/>
		<polygon fill="#E6E6E6" points="350,1312.5 350,1312.5 262.5,1400 350,1400 		"/>
		<polygon fill="#F0F0F0" points="0,1312.5 0,1400 87.5,1400 		"/>
		<polygon fill="#F0F0F0" points="525,1312.5 525,1400 612.5,1400 		"/>
		<polygon fill="#E6E6E6" points="525,1312.5 525,1312.5 437.5,1400 525,1400 		"/>
		<polygon fill="#F0F0F0" points="700,1312.5 700,1400 787.5,1400 		"/>
		<polygon fill="#E6E6E6" points="700,1312.5 700,1312.5 612.5,1400 700,1400 		"/>
		<polygon fill="#F0F0F0" points="875,1312.5 875,1400 962.5,1400 		"/>
		<polygon fill="#E6E6E6" points="875,1312.5 875,1312.5 787.5,1400 875,1400 		"/>
		<polygon fill="#F0F0F0" points="1050,1312.5 1050,1400 1137.5,1400 		"/>
		<polygon fill="#E6E6E6" points="1050,1312.5 1050,1312.5 962.5,1400 1050,1400 		"/>
		<polygon fill="#F0F0F0" points="1225,1312.5 1225,1400 1312.5,1400 		"/>
		<polygon fill="#E6E6E6" points="1225,1312.5 1225,1312.5 1137.5,1400 1225,1400 		"/>
		<polygon fill="#E6E6E6" points="1400,1312.5 1400,1312.5 1312.5,1400 1400,1400 		"/>
	</g>
	<g id="white_line">
		<path fill="#FFFFFF" d="M1354.5,1354.5c-7.3,7.3-14.5,14.7-21.5,22.3c-7,7.6-13.9,15.2-20.5,23.2c8-6.6,15.7-13.5,23.2-20.5
			c7.6-7,15-14.2,22.3-21.5c7.3-7.3,14.5-14.7,21.5-22.3c7-7.6,13.9-15.2,20.5-23.3c-8,6.6-15.7,13.5-23.3,20.5
			C1369.2,1340,1361.8,1347.2,1354.5,1354.5z"/>
		<path fill="#FFFFFF" d="M45.5,45.5C52.8,38.2,60,30.8,67,23.3C74,15.7,80.9,8,87.5,0c-8,6.6-15.7,13.5-23.3,20.5
			c-7.6,7-15,14.2-22.3,21.5c-7.3,7.3-14.5,14.7-21.5,22.3C13.5,71.8,6.6,79.5,0,87.5C8,80.9,15.7,74,23.2,67
			C30.8,60,38.2,52.8,45.5,45.5z"/>
		<path fill="#FFFFFF" d="M1400,87.5l-82.5,81.6l-3.9,3.9c-3.5-3.5-6.9-7-10.4-10.5l-32.7-32.9l-32.9-32.7c-3.5-3.5-7-6.9-10.5-10.4
			l3.9-3.9L1312.5,0L1230,81.6l-3.9,3.9c-7.2-7.1-14.4-14.2-21.6-21.2c-22.1-21.6-44.4-43.1-67-64.2c21.1,22.6,42.6,44.9,64.2,67
			c7,7.2,14.1,14.4,21.2,21.6l-75.3,74.6l-9.3,9.2l-10.1-10c-18.3-18.1-36.6-36.3-55-54.4c-7.2-7.1-14.3-14.1-21.5-21.1l15.1-15.3
			L1137.5,0l-71.6,70.6l-15.3,15.1c-10.9-10.7-21.7-21.3-32.6-31.9l-27.7-26.9l-13.9-13.5L962.5,0l13.4,13.9l13.5,13.9l26.9,27.7
			c10.6,10.9,21.3,21.7,31.9,32.6l-53.8,53.2L963,172.5l-1.8-1.8l-19.3-19l-65.4-64.6l26.2-26.6l29.9-30.3L962.5,0l-30.3,29.8
			l-30.3,29.9l-26.6,26.2l-10.4-10.2l-38.7-37.9l-19.3-18.9L787.5,0l18.9,19.4l18.9,19.3l37.9,38.7l10.2,10.3l-32.1,31.7l-53.7,53.2
			l-75.9-75.1l-10.2-10.1l37.2-37.8l24.4-24.8L787.5,0l-24.9,24.3l-24.8,24.4L700,86l-37.8-37.2l-24.8-24.4L612.5,0l24.3,24.9
			l24.4,24.8l37.2,37.8l-10.2,10.1l-75.9,75.1l-53.7-53.2l-32.1-31.7l10.2-10.3l37.9-38.7l18.9-19.3L612.5,0l-19.4,18.9l-19.3,18.9
			l-38.7,37.9l-10.4,10.2l-26.6-26.2l-30.3-29.9L437.5,0l29.8,30.3l29.9,30.3l26.2,26.6L458,151.8l-19.3,19l-1.8,1.8l-31.4-31.2
			l-53.8-53.2c10.7-10.8,21.3-21.7,31.9-32.6l26.9-27.7l13.5-13.9L437.5,0l-13.9,13.4l-13.9,13.5l-27.7,26.9
			c-10.9,10.6-21.7,21.3-32.6,31.9l-15.3-15.1L262.5,0l70.6,71.6l15.1,15.3c-7.2,7-14.3,14.1-21.5,21.1
			c-18.4,18.1-36.7,36.3-55,54.4l-10.1,10l-9.3-9.2l-75.3-74.6c7.1-7.2,14.1-14.3,21.2-21.6c21.6-22.1,43.1-44.4,64.2-67
			c-22.6,21.1-44.9,42.6-67,64.2c-7.2,7-14.4,14.1-21.6,21.2l-3.9-3.9L87.5,0l81.6,82.5l3.9,3.9c-3.5,3.5-7,6.9-10.5,10.4
			l-32.9,32.7l-32.7,32.9c-3.5,3.5-6.9,7-10.4,10.5l-3.9-3.9L0,87.5L81.6,170l3.9,3.9c-7.1,7.2-14.2,14.4-21.2,21.6
			c-21.6,22.1-43.1,44.4-64.3,67c22.6-21.1,44.9-42.6,67-64.3c7.2-7,14.4-14.1,21.6-21.2l74.6,75.3l9.2,9.3l-10,10.1
			c-18.1,18.3-36.3,36.6-54.4,55c-7.1,7.2-14.1,14.3-21.1,21.5l-15.3-15.1L0,262.5l70.6,71.6l15.1,15.3
			c-10.7,10.9-21.3,21.7-31.9,32.6l-26.9,27.7l-13.5,13.9L0,437.5l13.9-13.4l13.9-13.5l27.7-26.9c10.9-10.6,21.7-21.3,32.6-31.9
			l53.2,53.8l31.2,31.4c-6.9,7-13.9,14-20.8,21l-64.6,65.4l-26.6-26.2l-30.3-29.9L0,437.5l29.8,30.3l29.9,30.3l26.2,26.6l-10.2,10.4
			l-37.9,38.7l-18.9,19.3L0,612.5l19.4-18.9l19.3-18.9l38.7-37.9l10.3-10.2l31.7,32.1l53.2,53.7l-75.1,75.9l-10.1,10.2l-37.8-37.2
			l-24.8-24.4L0,612.5l24.3,24.9l24.4,24.8L86,700l-37.2,37.8l-24.4,24.8L0,787.5l24.9-24.3l24.8-24.4l37.8-37.2l10.1,10.3
			l75.1,75.9l-53.2,53.7l-31.7,32.1l-10.4-10.2l-38.7-37.9l-19.3-18.9L0,787.5l18.9,19.4l18.9,19.3l37.9,38.7l10.2,10.4l-26.2,26.6
			L0,962.5l60.6-59.7l26.6-26.2l64.6,65.4l19,19.3l1.8,1.8l-31.2,31.4l-53.2,53.8c-10.8-10.7-21.7-21.3-32.6-31.9l-27.7-26.9
			l-13.9-13.5L0,962.5l13.4,13.9l13.5,13.9l26.9,27.7c10.6,10.9,21.3,21.7,31.9,32.6l-15.1,15.3L0,1137.5l71.6-70.6l15.3-15.1
			c7,7.2,14.1,14.3,21.2,21.5c18.1,18.4,36.3,36.7,54.4,55l10,10.1l-9.2,9.3l-74.6,75.3c-7.2-7.1-14.4-14.1-21.6-21.2
			c-22.1-21.6-44.4-43.1-67-64.2c21.1,22.6,42.6,44.9,64.2,67c7,7.2,14.1,14.4,21.2,21.6l-3.9,3.9L0,1312.5l82.5-81.6l3.9-3.9
			c3.5,3.5,6.9,7,10.4,10.5l32.7,32.9l32.9,32.7c3.5,3.5,7,6.9,10.5,10.4l-3.9,3.9L87.5,1400l82.5-81.6l3.9-3.9
			c7.2,7.1,14.4,14.2,21.6,21.2c22.1,21.6,44.4,43.1,67,64.3c-21.1-22.6-42.6-44.9-64.3-67c-7-7.2-14.1-14.4-21.2-21.6l75.3-74.6
			l9.3-9.2l10.1,10c18.3,18.1,36.6,36.3,55,54.4c7.2,7.1,14.3,14.1,21.5,21.2l-15.1,15.3l-70.6,71.6l71.6-70.6l15.3-15.1
			c10.9,10.7,21.7,21.3,32.6,31.9l27.7,26.9l13.9,13.5l13.9,13.4l0,0l60.6-59.7l26.6-26.2l10.4,10.2l38.7,37.9l19.3,18.9l19.4,18.9
			l-18.9-19.4l-18.9-19.3l-37.9-38.7l-10.2-10.4l32.1-31.7l53.7-53.2l75.9,75.1l10.3,10.1l-37.2,37.8l-24.4,24.8l-24.3,24.9
			l24.9-24.3l24.8-24.4L700,1314l37.8,37.2l24.8,24.4l24.9,24.3l-24.3-24.9l-24.4-24.8l-37.2-37.8l10.3-10.1l75.9-75.1l53.7,53.2
			l32.1,31.7l-10.2,10.4l-37.9,38.7l-18.9,19.3l-18.9,19.4l19.4-18.9l19.3-18.9l38.7-37.9l10.4-10.2l26.6,26.2l60.6,59.7l-59.7-60.6
			l-26.2-26.6l65.4-64.6c7-6.9,14-13.8,21-20.8l31.4,31.2l53.8,53.2c-10.7,10.8-21.3,21.7-31.9,32.6l-26.9,27.7l-13.5,13.9
			l-13.4,13.9l13.9-13.4l13.9-13.5l27.7-26.9c10.9-10.6,21.7-21.3,32.6-31.9l15.3,15.1l71.6,70.6l-70.6-71.6l-15.1-15.3
			c7.2-7,14.3-14.1,21.5-21.2c18.4-18.1,36.7-36.3,55-54.4l10.1-10l9.3,9.2l75.3,74.6c-7.1,7.2-14.1,14.4-21.2,21.6
			c-21.6,22.1-43.1,44.4-64.3,67c22.6-21.1,44.9-42.6,67-64.3c7.2-7,14.4-14.1,21.6-21.2l3.9,3.9l82.5,81.6l-81.6-82.5l-3.9-3.9
			c3.5-3.5,7-6.9,10.5-10.4l32.9-32.7l32.7-32.9c3.5-3.5,6.9-7,10.4-10.5l3.9,3.9l82.5,81.6l-81.6-82.5l-3.9-3.9
			c7.1-7.2,14.2-14.4,21.2-21.6c21.6-22.1,43.1-44.4,64.2-67c-22.6,21.1-44.9,42.6-67,64.2c-7.2,7-14.4,14.1-21.6,21.2l-74.6-75.3
			l-9.2-9.3l10-10.1c18.1-18.3,36.3-36.6,54.4-55c7.1-7.2,14.1-14.3,21.2-21.5l15.3,15.1l71.6,70.6l-70.6-71.6l-15.1-15.3
			c10.7-10.9,21.3-21.7,31.9-32.6l26.9-27.7l13.5-13.9l13.4-13.9l0,0l-59.7-60.6l-26.2-26.6l10.2-10.4l37.9-38.7l18.9-19.3
			l18.9-19.4l-19.4,18.9l-19.3,18.9l-38.7,37.9l-10.4,10.2l-31.7-32.1l-53.2-53.7l75.1-75.9l10.1-10.3l37.8,37.2l24.8,24.4
			l24.9,24.3l-24.3-24.9l-24.4-24.8L1314,700l37.2-37.8l24.4-24.8l24.3-24.9l-24.9,24.3l-24.8,24.4l-37.8,37.2l-10.1-10.2
			l-75.1-75.9l53.2-53.7l31.7-32.1l10.3,10.2l38.7,37.9l19.3,18.9l19.4,18.9l-18.9-19.4l-18.9-19.3l-37.9-38.7l-10.2-10.4l26.2-26.6
			l29.9-30.3l29.8-30.3l-30.3,29.8l-30.3,29.9l-26.6,26.2l-64.6-65.4c-6.9-7-13.8-14-20.8-21l31.2-31.4l53.2-53.8
			c10.8,10.7,21.7,21.3,32.6,31.9l27.7,26.9l13.9,13.5l13.9,13.4l-13.4-13.9l-13.5-13.9l-26.9-27.7c-10.6-10.9-21.3-21.7-31.9-32.6
			l15.1-15.3l70.6-71.6l-71.6,70.6l-15.3,15.1c-7-7.2-14.1-14.3-21.1-21.5c-18.1-18.4-36.3-36.7-54.4-55l-10-10.1l9.2-9.3l74.6-75.3
			c7.2,7.1,14.4,14.1,21.6,21.2c22.1,21.6,44.4,43.1,67,64.3c-21.1-22.6-42.6-44.9-64.3-67c-7-7.2-14.1-14.4-21.2-21.6l3.9-3.9
			L1400,87.5z M996.2,143.1l53.2-53.8c7,7.2,14.1,14.3,21.1,21.5c18.1,18.4,36.3,36.7,54.4,55l10,10l-84.3,83.8l-31.7-31.6
			l-38.4-38.2L965,174.5L996.2,143.1z M1092,1092l-42.5,42.6l-63.7-64.1l-20.1-20.2l42.4-42.3l42.3-42.4l20.2,20.1l64.1,63.7
			L1092,1092z M1138.1,1052.9l84.3,83.8l-42.9,42.8l-42.8,42.9l-83.8-84.3l42.7-42.5L1138.1,1052.9z M308,1092l-42.6-42.5l64.1-63.7
			l20.2-20.1L392,1008l42.4,42.3l-20.1,20.2l-63.7,64.1L308,1092z M347.1,1138.1l-83.8,84.3l-42.8-42.9l-42.9-42.8l84.3-83.8
			l42.5,42.7L347.1,1138.1z M308,308l42.5-42.6l63.7,64.1l20.1,20.2L392,392l-42.3,42.4l-20.2-20.1l-64.1-63.7L308,308z
			 M261.9,347.1l-84.4-83.8l42.9-42.8l42.8-42.9l83.8,84.3l-42.6,42.5L261.9,347.1z M906.1,297l53.2,53.3l-84.2,83.9l-75.1-74.9
			l-9.5-9.4l63.8-64.1l20.2-20.4L906.1,297z M877.9,262.2l84.1-84.7l15.4,15.5l38.2,38.4l31.6,31.7L983,326.8l-20.2,20.1l-53.3-53.2
			L877.9,262.2z M917,917l-42.1,42.2L822,906.1l-31.1-31.1l42.1-42l42-42.1l31.1,31.1l53.1,52.9L917,917z M962.7,878.3l84.2,83.9
			l-42.4,42.3l-42.3,42.4l-83.9-84.2l42.2-42.2L962.7,878.3z M483,917l-42.2-42.2l53.1-52.9l31.1-31.1l42,42.1l42.1,42L578,906.1
			l-52.9,53.1L483,917z M521.7,962.7l-83.9,84.2l-42.3-42.4l-42.4-42.3l84.2-83.9l42.2,42.2L521.7,962.7z M483,483l42.1-42.2
			l52.9,53.1l31.1,31.1L567,567l-42,42.1L493.9,578l-53.1-52.9L483,483z M437.3,521.7l-84.2-83.9l42.4-42.3l42.3-42.4l83.9,84.2
			l-42.2,42.2L437.3,521.7z M784.1,525L700,609l-84.1-84l84.1-84.2L784.1,525z M703.4,437.5l9.2-9.3l74.7-75.1l9.4,9.4l74.9,75
			l-53.1,52.9l-31.1,31.1L703.4,437.5z M742,742l-42,42l-42-42l-42-42l42-42l42-42l42,42l42,42L742,742z M787.5,703.5l84.1,84
			l-42.1,42l-42,42.1l-84-84.1l42-42L787.5,703.5z M696.5,787.5l-84,84.1l-42-42.1l-42.1-42l84.1-84l42,42L696.5,787.5z
			 M612.5,696.5l-84.1-84l42.1-42l42-42.1l84,84.1l-42,42L612.5,696.5z M745.5,654.5l-42-42l84-84.1l42,42.1l42.1,42l-84.1,84
			L745.5,654.5z M612.5,521.6l-31.1-31.1l-53.1-52.9l74.9-75l9.4-9.4l74.7,75.1l9.2,9.3L612.5,521.6z M490.5,581.4l31.1,31.1
			l-84.1,84.2l-9.3-9.3l-75.1-74.7c3.2-3.1,6.3-6.3,9.4-9.4l75.1-74.9L490.5,581.4z M525,615.9l84,84.1l-84,84.1L440.9,700
			L525,615.9z M521.6,787.5l-31.1,31.1l-52.9,53.1l-75.1-74.9l-9.5-9.4l75.1-74.7l9.3-9.2L521.6,787.5z M581.4,909.5l31.1-31.1
			l84.2,84.1l-9.3,9.3l-74.7,75.1c-3.1-3.2-6.3-6.3-9.4-9.5l-74.9-75.1L581.4,909.5z M615.9,875l84.1-84l84.1,84L700,959.1
			L615.9,875z M787.5,878.4l31.1,31.1l53.1,52.9l-74.9,75.1c-3.1,3.2-6.3,6.3-9.4,9.5l-74.7-75.1l-9.3-9.3L787.5,878.4z
			 M909.5,818.6l-31.1-31.1l84.1-84.2l9.3,9.2l75.1,74.7l-9.5,9.4l-75.1,74.9L909.5,818.6z M875,784.1L791,700l84-84.1l84.2,84.1
			L875,784.1z M878.4,612.5l31.1-31.1l52.9-53.1l75.1,74.9c3.2,3.1,6.3,6.3,9.4,9.4l-75.1,74.7l-9.3,9.3L878.4,612.5z M906.1,578
			L875,609.1L833,567l-42.1-42l31.1-31.1l52.9-53.1L917,483l42.2,42.1L906.1,578z M920.5,479.5l-42.2-42.2l83.9-84.2l42.3,42.4
			l42.4,42.3l-84.2,83.9L920.5,479.5z M851.8,283l-64.1,63.8l-47.8-47.6l-37-36.7l20.4-20.5l64.1-64.6l20.7,20.9l49,49.4l15.1,15.2
			L851.8,283z M736.7,302.3l47.6,47.8l-75.1,74.7l-9.3,9.3l-9.3-9.3l-75.1-74.7l47.6-47.8l36.7-37L736.7,302.3z M660.2,299.2
			l-47.8,47.6L548.2,283l-20.4-20.2l15.1-15.2l49-49.4l20.7-20.9l64.1,64.6l20.4,20.5L660.2,299.2z M545.5,285.7l63.8,64.1l-9.5,9.4
			l-75.1,74.9l-84.2-83.9l53.2-53.3l31.4-31.6L545.5,285.7z M490.5,293.6l-53.3,53.2L417,326.8L352.9,263l31.6-31.7l38.2-38.4
			l15.4-15.5l84.1,84.7L490.5,293.6z M326.8,417l20.1,20.2l-53.2,53.3c-10.5,10.5-21,21.1-31.5,31.6L177.5,438
			c18-17.8,35.9-35.7,53.9-53.5l31.7-31.6L326.8,417z M297,493.9l53.3-53.2l83.9,84.2l-74.9,75.1c-3.1,3.2-6.3,6.3-9.4,9.5
			l-64.1-63.8l-20.4-20.2C275.9,514.8,286.4,504.3,297,493.9z M283,548.2l63.8,64.1c-28.1,28.3-56.3,56.5-84.4,84.8L242,676.8
			l-64.6-64.1l20.9-20.7c21.6-21.3,43.1-42.7,64.6-64.1L283,548.2z M350.1,615.7l74.8,75.1l9.3,9.3l-9.3,9.3l-74.7,75.1l-47.8-47.6
			l-37-36.7C293.7,671.9,321.9,643.8,350.1,615.7z M299.2,739.8l47.6,47.8L283,851.8l-20.2,20.4L247.6,857l-49.4-49l-20.9-20.7
			l64.6-64.1c6.8-6.8,13.7-13.6,20.5-20.4L299.2,739.8z M285.7,854.5l64.1-63.8l9.4,9.5l74.9,75.1l-83.9,84.2L297,906.1l-31.6-31.4
			L285.7,854.5z M293.6,909.5l53.2,53.3L326.8,983l-63.7,64.1l-31.7-31.6L193,977.4L177.5,962l84.7-84.1L293.6,909.5z M417,1073.2
			l20.2-20.1l53.3,53.2c10.5,10.5,21.1,21,31.6,31.5l-84.1,84.7c-17.8-18-35.7-35.9-53.5-53.9l-31.6-31.7L417,1073.2z M493.9,1103
			l-53.2-53.3l84.2-83.9l75.1,74.9c3.2,3.1,6.3,6.3,9.5,9.4l-63.8,64.1l-20.2,20.4C514.8,1124.1,504.3,1113.6,493.9,1103z
			 M548.2,1117l64.1-63.8c28.3,28.1,56.5,56.3,84.8,84.4c-6.8,6.8-13.6,13.7-20.3,20.5l-64.1,64.6l-20.7-20.9
			c-21.3-21.6-42.7-43.1-64.1-64.6L548.2,1117z M615.6,1049.9l75.1-74.8l9.3-9.3l9.3,9.3l75.1,74.8c-28.1,28.2-56.3,56.5-84.4,84.7
			C671.9,1106.3,643.8,1078.1,615.6,1049.9z M787.6,1053.1l64.1,63.8l20.4,20.2c-21.4,21.5-42.8,43-64.1,64.6l-20.7,20.9l-64.1-64.6
			c-6.8-6.8-13.6-13.7-20.3-20.5C731.2,1109.4,759.4,1081.3,787.6,1053.1z M854.5,1114.3l-63.8-64.1c3.2-3.1,6.3-6.3,9.5-9.4
			l75.1-74.9l84.2,83.9l-53.2,53.3c-10.5,10.5-21,21.1-31.4,31.6L854.5,1114.3z M909.5,1106.4l53.3-53.2l20.2,20.1l64.1,63.7
			l-31.6,31.7c-17.8,18-35.7,35.9-53.5,53.9l-84.1-84.7C888.4,1127.3,898.9,1116.8,909.5,1106.4z M1073.2,983l-20.1-20.2l53.2-53.3
			l31.5-31.6l84.7,84.1l-15.5,15.4l-38.4,38.2l-31.7,31.6L1073.2,983z M1103,906.1l-53.3,53.2l-83.9-84.2l74.9-75.1l9.4-9.5
			l64.1,63.8l20.4,20.2L1103,906.1z M1117,851.8l-63.8-64.1l47.6-47.8l36.7-37c6.8,6.8,13.7,13.6,20.5,20.4l64.6,64.1l-20.9,20.7
			l-49.4,49l-15.2,15.1L1117,851.8z M1097.7,736.7l-47.8,47.6l-74.7-75.1l-9.3-9.3l9.3-9.3l74.8-75.1c28.2,28.1,56.5,56.3,84.8,84.4
			L1097.7,736.7z M1053.1,612.4l63.8-64.1l20.2-20.4c21.5,21.4,43,42.8,64.6,64.1l20.9,20.7l-64.6,64.1l-20.5,20.4
			C1109.4,668.8,1081.3,640.6,1053.1,612.4z M1114.3,545.5l-64.1,63.8c-3.1-3.2-6.3-6.3-9.4-9.5l-74.9-75.1l83.9-84.2l53.3,53.2
			c10.5,10.5,21.1,21,31.6,31.4L1114.3,545.5z M1106.4,490.5l-53.2-53.3l20.1-20.2l63.7-64.1l31.7,31.6c18,17.8,35.9,35.7,53.9,53.5
			l-84.7,84.1C1127.3,511.6,1116.8,501.1,1106.4,490.5z M1070.5,414.3l-20.2,20.1L1008,392l-42.4-42.3l20.1-20.2l63.7-64.1L1092,308
			l42.6,42.5L1070.5,414.3z M1095.5,304.5l-42.6-42.5l83.8-84.3l42.8,42.9l42.9,42.8l-84.4,83.8L1095.5,304.5z M843.1,121.2
			l31.7-32.1l64.6,65.4l19,19.3l1.7,1.8l-84.7,84.1l-15.2-15.1l-49.4-49l-20.9-20.7L843.1,121.2z M689.9,99.3L700,89.1l10.1,10.2
			l75.1,75.8l-64.6,64.1L700,259.7l-20.5-20.4l-64.6-64.1L689.9,99.3z M441.7,173.7l19-19.3l64.6-65.4l31.7,32.1l53.2,53.7
			l-20.9,20.7l-49.4,49l-15.2,15.1L440,175.5L441.7,173.7z M275.1,165.7c18.1-18.3,36.3-36.6,54.4-55c7.1-7.1,14.1-14.3,21.1-21.5
			l53.2,53.8l31.2,31.4l-15.5,15.4L381.1,228l-31.7,31.6l-84.3-83.8L275.1,165.7z M164.9,250.7l-75.3-74.6c3.5-3.5,7-6.9,10.5-10.4
			L133,133l32.7-32.9c3.4-3.5,6.9-7,10.4-10.5l74.6,75.3l9.2,9.3L217,217l-42.8,42.9L164.9,250.7z M143.1,403.8l-53.8-53.2
			c7.2-7,14.3-14.1,21.5-21.1c18.4-18.1,36.7-36.3,55-54.4l10.1-10l83.9,84.4L228,381.1c-17.8,18-35.7,35.9-53.5,53.9L143.1,403.8z
			 M121.2,556.9l-32.1-31.7l65.4-64.6c7-6.9,14-13.8,21-20.8l84.1,84.7c-21.4,21.5-42.8,43-64.1,64.6l-20.7,20.9L121.2,556.9z
			 M99.3,710.1L89.1,700l10.2-10.1l75.8-75.1l64.1,64.7l20.4,20.5c-6.8,6.8-13.6,13.7-20.4,20.5l-64.1,64.6L99.3,710.1z
			 M173.7,958.3l-19.3-19l-65.4-64.6l32.1-31.7l53.7-53.2l20.7,20.9l49,49.4l15.1,15.2L175.5,960L173.7,958.3z M165.7,1124.9
			c-18.3-18.1-36.6-36.3-55-54.4c-7.2-7.1-14.3-14.1-21.5-21.1l53.8-53.2l31.4-31.2l15.4,15.5l38.2,38.4l31.6,31.7l-83.8,84.3
			L165.7,1124.9z M250.7,1235.1l-74.6,75.3c-3.5-3.5-6.9-7-10.4-10.5L133,1267l-32.9-32.7c-3.5-3.4-7-6.9-10.5-10.4l75.3-74.6
			l9.3-9.2L217,1183l42.9,42.8L250.7,1235.1z M329.5,1289.3c-18.1-18.4-36.3-36.7-54.4-55l-10-10.1l84.4-83.9l31.7,31.6
			c18,17.8,35.9,35.7,53.9,53.5l-31.2,31.4l-53.2,53.8C343.6,1303.6,336.6,1296.4,329.5,1289.3z M497.2,1339.4l-59.7,60.6
			l-13.4-13.9l-13.5-13.9l-26.9-27.7c-10.6-10.9-21.3-21.7-31.9-32.6l53.8-53.2l31.4-31.2c7,6.9,14,13.9,21,20.8l65.4,64.6
			L497.2,1339.4z M557,1278.8l-31.7,32.1l-64.6-65.4c-6.9-7-13.8-14-20.8-21l84.7-84.1c21.5,21.4,43,42.8,64.6,64.1l20.9,20.7
			L557,1278.8z M710.1,1300.7l-10.1,10.2l-10.1-10.2l-75.1-75.8l64.6-64.1c6.8-6.8,13.7-13.6,20.5-20.4c6.8,6.8,13.7,13.6,20.5,20.4
			l64.6,64.1L710.1,1300.7z M939.3,1245.5l-64.6,65.4l-31.7-32.1l-53.2-53.7l20.9-20.7c21.6-21.3,43.1-42.7,64.6-64.1l84.7,84.1
			C953.1,1231.5,946.2,1238.5,939.3,1245.5z M1124.9,1234.3c-18.1,18.3-36.3,36.6-54.4,55c-7.1,7.2-14.1,14.3-21.1,21.5l-53.2-53.8
			l-31.2-31.4c18-17.8,35.9-35.7,53.9-53.5l31.7-31.6l84.4,83.9L1124.9,1234.3z M1235.1,1149.3l75.3,74.6c-3.5,3.5-7,6.9-10.5,10.4
			L1267,1267l-32.7,32.9c-3.4,3.5-6.9,7-10.4,10.5l-74.6-75.3l-9.2-9.3l42.9-42.8l42.8-42.9L1235.1,1149.3z M1289.2,1070.5
			c-18.4,18.1-36.7,36.3-55,54.4l-10.1,10l-83.8-84.3l31.6-31.7l38.2-38.4l15.4-15.5l31.4,31.2l53.8,53.2
			C1303.6,1056.4,1296.4,1063.4,1289.2,1070.5z M1339.4,902.8l60.6,59.7l-13.9,13.4l-13.9,13.5l-27.7,26.9
			c-10.9,10.6-21.7,21.3-32.6,31.9l-53.2-53.8l-31.2-31.4l1.8-1.8l19-19.3l64.6-65.4L1339.4,902.8z M1278.8,843l32.1,31.7
			l-65.4,64.6l-19.3,19l-1.8,1.7l-84.1-84.7l15.1-15.2l49-49.4l20.7-20.9L1278.8,843z M1300.7,689.9l10.2,10.1l-10.2,10.1
			l-75.9,75.1l-64.1-64.6c-6.8-6.9-13.6-13.7-20.4-20.5l20.4-20.5l64.1-64.7L1300.7,689.9z M1245.5,460.7l65.4,64.6l-32.1,31.7
			l-53.7,53.2l-20.7-20.9c-21.3-21.6-42.7-43.1-64.1-64.6l84.1-84.7C1231.5,446.9,1238.5,453.8,1245.5,460.7z M1234.3,275.1
			c18.3,18.1,36.6,36.3,55,54.4c7.1,7.1,14.3,14.1,21.5,21.1l-53.8,53.2l-31.4,31.2c-17.8-18-35.7-35.9-53.5-53.9l-31.6-31.7
			l83.9-84.4L1234.3,275.1z M1235.1,250.7l-9.3,9.2L1183,217l-42.9-42.8l9.2-9.3l74.6-75.3c3.5,3.5,6.9,7,10.4,10.5L1267,133
			l32.9,32.7c3.5,3.4,7,6.9,10.5,10.4L1235.1,250.7z"/>
		<path fill="#FFFFFF" d="M1354.5,45.5c7.3,7.3,14.7,14.5,22.3,21.5c7.6,7,15.2,13.9,23.2,20.5c-6.6-8-13.5-15.7-20.5-23.2
			c-7-7.6-14.2-15-21.5-22.3c-7.3-7.3-14.7-14.5-22.3-21.5c-7.6-7-15.2-13.9-23.3-20.5c6.6,8,13.5,15.7,20.5,23.3
			C1340,30.8,1347.2,38.2,1354.5,45.5z"/>
		<path fill="#FFFFFF" d="M45.5,1354.5c-7.3-7.3-14.7-14.5-22.3-21.5c-7.6-7-15.2-13.9-23.3-20.5c6.6,8,13.5,15.7,20.5,23.3
			c7,7.6,14.2,15,21.5,22.3c7.3,7.3,14.7,14.5,22.3,21.5c7.6,7,15.2,13.9,23.2,20.5c-6.6-8-13.5-15.7-20.5-23.2
			C60,1369.2,52.8,1361.8,45.5,1354.5z"/>
	</g>
</g>
</svg>
